# xmcd CD database file
#
# Track frame offsets:
#	150
#	25050
#	45225
#
# Disc length: 918 seconds
#
# Revision: 0
# Processed by: cddbd v1.5.1PL2 Copyright (c) Steve Scherf et al.
# Submitted via: CD2WAV32(EN) R3.19
#
DISCID=15039403
DTITLE=??? - ??
DYEAR=1900
DGENRE=
TTITLE0=??
TTITLE1=????
TTITLE2=?????
EXTD=
EXTT0=
EXTT1=
EXTT2=
PLAYORDER=
